<svg xmlns="http://www.w3.org/2000/svg" version="1.1" xmlns:xlink="http://www.w3.org/1999/xlink" xmlns:svgjs="http://svgjs.dev/svgjs" width="1500" height="935" viewBox="0 0 1500 935"><g transform="matrix(1,0,0,1,-0.9090909090909918,0.3785425101214628)"><svg viewBox="0 0 396 247" data-background-color="#000000" preserveAspectRatio="xMidYMid meet" height="935" width="1500" xmlns="http://www.w3.org/2000/svg" xmlns:xlink="http://www.w3.org/1999/xlink"><g id="tight-bounds" transform="matrix(1,0,0,1,0.2400000000000091,-0.09999999999999432)"><svg viewBox="0 0 395.52 247.2" height="247.2" width="395.52"><rect width="395.52" height="247.2" fill="url(#6c3137bc-b39f-4150-b7d1-c263b3378836)" mask="url(#ea34b5eb-befb-4356-8a8a-1da0cc1f235a)" data-fill-palette-color="tertiary"></rect><g><svg></svg></g><g><svg viewBox="0 0 395.52 247.2" height="247.2" width="395.52"><g transform="matrix(1,0,0,1,75.54432,92.94447551543942)"><svg viewBox="0 0 244.43135999999998 61.31104896912114" height="61.31104896912114" width="244.43135999999998"><g><svg viewBox="0 0 244.43135999999998 61.31104896912114" height="61.31104896912114" width="244.43135999999998"><g><svg viewBox="0 0 244.43136 61.311048969121146" height="61.31104896912114" width="244.43135999999998"><g><svg viewBox="0 0 244.43136 61.311048969121146" height="61.311048969121146" width="244.43136"><g id="textblocktransform"><svg viewBox="0 0 244.43136 61.311048969121146" height="61.311048969121146" width="244.43136" id="textblock"><g><svg viewBox="0 0 244.43136 61.311048969121146" height="61.311048969121146" width="244.43136"><g transform="matrix(1,0,0,1,0,0)"><svg width="244.43136" viewBox="3.9 -25.65 105.24 26.4" height="61.311048969121146" data-palette-color="url(#8109b5b4-63a2-4409-95ac-23dc41f2a6e8)"></svg></g></svg></g></svg></g></svg></g></svg></g></svg></g></svg></g><g><path d="M245.816 0c68.262 0 123.6 55.338 123.6 123.6 0 68.262-55.338 123.6-123.6 123.6-55.044 0-101.685-35.982-117.684-85.707h2.909c15.896 48.174 61.275 82.943 114.775 82.942 66.736 0 120.835-54.1 120.835-120.835 0-66.736-54.1-120.835-120.835-120.835-53.5 0-98.879 34.769-114.775 82.942l-2.909 0c15.999-49.726 62.639-85.707 117.684-85.707z" fill="url(#6c3137bc-b39f-4150-b7d1-c263b3378836)" stroke="transparent" data-fill-palette-color="tertiary"></path></g></svg></g><defs></defs><mask id="33bd28c9-e165-469a-b5c2-b57506c90357"><g id="SvgjsG2534"><svg viewBox="0 0 395.52 247.2" height="247.2" width="395.52"><g><svg></svg></g><g><svg viewBox="0 0 395.52 247.2" height="247.2" width="395.52"><g transform="matrix(1,0,0,1,75.54432,92.94447551543942)"><svg viewBox="0 0 244.43135999999998 61.31104896912114" height="61.31104896912114" width="244.43135999999998"><g><svg viewBox="0 0 244.43135999999998 61.31104896912114" height="61.31104896912114" width="244.43135999999998"><g><svg viewBox="0 0 244.43136 61.311048969121146" height="61.31104896912114" width="244.43135999999998"><g><svg viewBox="0 0 244.43136 61.311048969121146" height="61.311048969121146" width="244.43136"><g id="SvgjsG2533"><svg viewBox="0 0 244.43136 61.311048969121146" height="61.311048969121146" width="244.43136" id="SvgjsSvg2532"><g><svg viewBox="0 0 244.43136 61.311048969121146" height="61.311048969121146" width="244.43136"><g transform="matrix(1,0,0,1,0,0)"><svg width="244.43136" viewBox="3.9 -25.65 105.24 26.4" height="61.311048969121146" data-palette-color="url(#8109b5b4-63a2-4409-95ac-23dc41f2a6e8)"><path d="M3.9 0L3.9-2.5 17.65-22.5 4.35-22.5 4.35-25.05 21.2-25.05 21.2-22.55 7.35-2.55 22.25-2.55 22.25 0 3.9 0ZM28.35-6.35Q28.65-4.1 30.6-2.98 32.55-1.85 34.95-1.85L34.95-1.85Q37.2-1.85 39.05-2.88 40.9-3.9 40.9-6.2L40.9-6.2Q40.9-7.7 40.02-8.68 39.15-9.65 37.85-10.25 36.55-10.85 34.35-11.55L34.35-11.55Q31.9-12.35 30.35-13.05 28.8-13.75 27.65-15.03 26.5-16.3 26.3-18.25L26.3-18.25 26.25-18.85Q26.25-20.5 27.17-22.08 28.1-23.65 30.02-24.65 31.95-25.65 34.85-25.65L34.85-25.65Q36.45-25.65 37.67-25.33 38.9-25 39.6-24.65 40.3-24.3 40.45-24.2L40.45-24.2 39.5-21.9Q39.35-22 38.77-22.3 38.2-22.6 37.15-22.9 36.1-23.2 34.85-23.2L34.85-23.2Q32.45-23.2 30.75-22.08 29.05-20.95 29.05-18.95L29.05-18.95Q29.05-17.05 30.6-16.05 32.15-15.05 35.35-14.05L35.35-14.05Q38.05-13.15 39.7-12.35 41.35-11.55 42.52-10.08 43.7-8.6 43.7-6.25L43.7-6.25Q43.7-3.25 41.47-1.25 39.25 0.75 34.95 0.75L34.95 0.75Q32.1 0.75 30.02-0.23 27.95-1.2 26.87-2.8 25.8-4.4 25.7-6.35L25.7-6.35 28.35-6.35ZM63.35-0.3Q60.25 0.5 57.35 0.5L57.35 0.5Q54.65 0.5 52.85-0.1L52.85-0.1Q49.9-1.1 48.57-3.18 47.25-5.25 47.25-9L47.25-9 47.25-15.4Q47.25-20.35 49.85-22.93 52.45-25.5 56.55-25.5L56.55-25.5Q59.8-25.5 63.25-23.9L63.25-23.9 62.45-21.85Q59.6-23 56.95-23L56.95-23Q53.85-23 51.95-21.23 50.05-19.45 50.05-15.7L50.05-15.7 50.05-8.45Q50.05-5 52.12-3.45 54.2-1.9 57.65-1.9L57.65-1.9Q59.9-1.9 62.75-2.55L62.75-2.55 63.35-0.3ZM85.69 0Q80.29 0.55 77.89 0.55L77.89 0.55Q72.64 0.55 69.54-1.4 66.44-3.35 66.44-8.45L66.44-8.45 66.44-12.6Q66.44-17.55 69.89-19.25L69.89-19.25Q71.54-20.1 74.09-20.1L74.09-20.1Q76.44-20.1 78.84-19.33 81.24-18.55 82.89-17.3L82.89-17.3Q82.89-20.05 81.29-21.68 79.69-23.3 75.14-23.3L75.14-23.3 75.29-25.45Q80.09-25.45 82.37-23.93 84.64-22.4 85.17-20.3 85.69-18.2 85.69-14.9L85.69-14.9 85.69 0ZM82.89-15.15Q80.84-16.1 78.52-16.8 76.19-17.5 74.24-17.5L74.24-17.5Q69.19-17.5 69.19-12.45L69.19-12.45 69.19-8.1Q69.19-4.85 71.44-3.38 73.69-1.9 77.84-1.9L77.84-1.9Q79.99-1.9 82.89-2.3L82.89-2.3 82.89-15.15ZM106.39 0L106.39-17.15Q106.39-20.2 104.62-21.58 102.84-22.95 100.04-22.95L100.04-22.95Q98.34-22.95 96.59-22.48 94.84-22 93.49-21.25L93.49-21.25 93.49 0 90.69 0 90.69-25.05 93.49-25.05 93.29-23.35Q94.49-24.4 96.34-24.93 98.19-25.45 100.19-25.45L100.19-25.45Q102.94-25.45 104.89-24.55L104.89-24.55Q106.89-23.65 108.02-21.85 109.14-20.05 109.14-17.3L109.14-17.3 109.14 0 106.39 0Z" opacity="1" transform="matrix(1,0,0,1,0,0)" fill="white" class="wordmark-text-0" id="SvgjsPath2531"></path></svg></g></svg></g></svg></g></svg></g></svg></g></svg></g></svg></g><g><path d="M245.816 0c68.262 0 123.6 55.338 123.6 123.6 0 68.262-55.338 123.6-123.6 123.6-55.044 0-101.685-35.982-117.684-85.707h2.909c15.896 48.174 61.275 82.943 114.775 82.942 66.736 0 120.835-54.1 120.835-120.835 0-66.736-54.1-120.835-120.835-120.835-53.5 0-98.879 34.769-114.775 82.942l-2.909 0c15.999-49.726 62.639-85.707 117.684-85.707z" fill="black" stroke="transparent"></path></g></svg></g><defs><mask></mask></defs></svg><rect width="395.52" height="247.2" fill="black" stroke="none" visibility="hidden"></rect></g></mask><linearGradient x1="0" x2="1" y1="0.548" y2="0.55" id="8109b5b4-63a2-4409-95ac-23dc41f2a6e8"><stop stop-color="#ff6cab" offset="0"></stop><stop stop-color="#7366ff" offset="1"></stop></linearGradient><rect width="395.52" height="247.2" fill="url(#8109b5b4-63a2-4409-95ac-23dc41f2a6e8)" mask="url(#33bd28c9-e165-469a-b5c2-b57506c90357)" data-fill-palette-color="primary"></rect><mask id="ea34b5eb-befb-4356-8a8a-1da0cc1f235a"><g id="SvgjsG2557"><svg viewBox="0 0 395.52 247.2" height="247.2" width="395.52"><g><svg></svg></g><g><svg viewBox="0 0 395.52 247.2" height="247.2" width="395.52"><g transform="matrix(1,0,0,1,75.54432,92.94447551543942)"><svg viewBox="0 0 244.43135999999998 61.31104896912114" height="61.31104896912114" width="244.43135999999998"><g><svg viewBox="0 0 244.43135999999998 61.31104896912114" height="61.31104896912114" width="244.43135999999998"><g><svg viewBox="0 0 244.43136 61.311048969121146" height="61.31104896912114" width="244.43135999999998"><g><svg viewBox="0 0 244.43136 61.311048969121146" height="61.311048969121146" width="244.43136"><g id="SvgjsG2556"><svg viewBox="0 0 244.43136 61.311048969121146" height="61.311048969121146" width="244.43136" id="SvgjsSvg2555"><g><svg viewBox="0 0 244.43136 61.311048969121146" height="61.311048969121146" width="244.43136"><g transform="matrix(1,0,0,1,0,0)"><svg width="244.43136" viewBox="3.9 -25.65 105.24 26.4" height="61.311048969121146" data-palette-color="url(#8109b5b4-63a2-4409-95ac-23dc41f2a6e8)"></svg></g></svg></g></svg></g></svg></g></svg></g></svg></g></svg></g><g><path d="M245.816 0c68.262 0 123.6 55.338 123.6 123.6 0 68.262-55.338 123.6-123.6 123.6-55.044 0-101.685-35.982-117.684-85.707h2.909c15.896 48.174 61.275 82.943 114.775 82.942 66.736 0 120.835-54.1 120.835-120.835 0-66.736-54.1-120.835-120.835-120.835-53.5 0-98.879 34.769-114.775 82.942l-2.909 0c15.999-49.726 62.639-85.707 117.684-85.707z" fill="white" stroke="transparent"></path></g></svg></g><defs><mask></mask></defs><mask><g id="SvgjsG2554"><svg viewBox="0 0 395.52 247.2" height="247.2" width="395.52"><g><svg></svg></g><g><svg viewBox="0 0 395.52 247.2" height="247.2" width="395.52"><g transform="matrix(1,0,0,1,75.54432,92.94447551543942)"><svg viewBox="0 0 244.43135999999998 61.31104896912114" height="61.31104896912114" width="244.43135999999998"><g><svg viewBox="0 0 244.43135999999998 61.31104896912114" height="61.31104896912114" width="244.43135999999998"><g><svg viewBox="0 0 244.43136 61.311048969121146" height="61.31104896912114" width="244.43135999999998"><g><svg viewBox="0 0 244.43136 61.311048969121146" height="61.311048969121146" width="244.43136"><g id="SvgjsG2553"><svg viewBox="0 0 244.43136 61.311048969121146" height="61.311048969121146" width="244.43136" id="SvgjsSvg2552"><g><svg viewBox="0 0 244.43136 61.311048969121146" height="61.311048969121146" width="244.43136"><g transform="matrix(1,0,0,1,0,0)"><svg width="244.43136" viewBox="3.9 -25.65 105.24 26.4" height="61.311048969121146" data-palette-color="url(#8109b5b4-63a2-4409-95ac-23dc41f2a6e8)"><path d="M3.9 0L3.9-2.5 17.65-22.5 4.35-22.5 4.35-25.05 21.2-25.05 21.2-22.55 7.35-2.55 22.25-2.55 22.25 0 3.9 0ZM28.35-6.35Q28.65-4.1 30.6-2.98 32.55-1.85 34.95-1.85L34.95-1.85Q37.2-1.85 39.05-2.88 40.9-3.9 40.9-6.2L40.9-6.2Q40.9-7.7 40.02-8.68 39.15-9.65 37.85-10.25 36.55-10.85 34.35-11.55L34.35-11.55Q31.9-12.35 30.35-13.05 28.8-13.75 27.65-15.03 26.5-16.3 26.3-18.25L26.3-18.25 26.25-18.85Q26.25-20.5 27.17-22.08 28.1-23.65 30.02-24.65 31.95-25.65 34.85-25.65L34.85-25.65Q36.45-25.65 37.67-25.33 38.9-25 39.6-24.65 40.3-24.3 40.45-24.2L40.45-24.2 39.5-21.9Q39.35-22 38.77-22.3 38.2-22.6 37.15-22.9 36.1-23.2 34.85-23.2L34.85-23.2Q32.45-23.2 30.75-22.08 29.05-20.95 29.05-18.95L29.05-18.95Q29.05-17.05 30.6-16.05 32.15-15.05 35.35-14.05L35.35-14.05Q38.05-13.15 39.7-12.35 41.35-11.55 42.52-10.08 43.7-8.6 43.7-6.25L43.7-6.25Q43.7-3.25 41.47-1.25 39.25 0.75 34.95 0.75L34.95 0.75Q32.1 0.75 30.02-0.23 27.95-1.2 26.87-2.8 25.8-4.4 25.7-6.35L25.7-6.35 28.35-6.35ZM63.35-0.3Q60.25 0.5 57.35 0.5L57.35 0.5Q54.65 0.5 52.85-0.1L52.85-0.1Q49.9-1.1 48.57-3.18 47.25-5.25 47.25-9L47.25-9 47.25-15.4Q47.25-20.35 49.85-22.93 52.45-25.5 56.55-25.5L56.55-25.5Q59.8-25.5 63.25-23.9L63.25-23.9 62.45-21.85Q59.6-23 56.95-23L56.95-23Q53.85-23 51.95-21.23 50.05-19.45 50.05-15.7L50.05-15.7 50.05-8.45Q50.05-5 52.12-3.45 54.2-1.9 57.65-1.9L57.65-1.9Q59.9-1.9 62.75-2.55L62.75-2.55 63.35-0.3ZM85.69 0Q80.29 0.55 77.89 0.55L77.89 0.55Q72.64 0.55 69.54-1.4 66.44-3.35 66.44-8.45L66.44-8.45 66.44-12.6Q66.44-17.55 69.89-19.25L69.89-19.25Q71.54-20.1 74.09-20.1L74.09-20.1Q76.44-20.1 78.84-19.33 81.24-18.55 82.89-17.3L82.89-17.3Q82.89-20.05 81.29-21.68 79.69-23.3 75.14-23.3L75.14-23.3 75.29-25.45Q80.09-25.45 82.37-23.93 84.64-22.4 85.17-20.3 85.69-18.2 85.69-14.9L85.69-14.9 85.69 0ZM82.89-15.15Q80.84-16.1 78.52-16.8 76.19-17.5 74.24-17.5L74.24-17.5Q69.19-17.5 69.19-12.45L69.19-12.45 69.19-8.1Q69.19-4.85 71.44-3.38 73.69-1.9 77.84-1.9L77.84-1.9Q79.99-1.9 82.89-2.3L82.89-2.3 82.89-15.15ZM106.39 0L106.39-17.15Q106.39-20.2 104.62-21.58 102.84-22.95 100.04-22.95L100.04-22.95Q98.34-22.95 96.59-22.48 94.84-22 93.49-21.25L93.49-21.25 93.49 0 90.69 0 90.69-25.05 93.49-25.05 93.29-23.35Q94.49-24.4 96.34-24.93 98.19-25.45 100.19-25.45L100.19-25.45Q102.94-25.45 104.89-24.55L104.89-24.55Q106.89-23.65 108.02-21.85 109.14-20.05 109.14-17.3L109.14-17.3 109.14 0 106.39 0Z" opacity="1" transform="matrix(1,0,0,1,0,0)" fill="black" class="wordmark-text-0" id="SvgjsPath2551"></path></svg></g></svg></g></svg></g></svg></g></svg></g></svg></g></svg></g><g><path d="M245.816 0c68.262 0 123.6 55.338 123.6 123.6 0 68.262-55.338 123.6-123.6 123.6-55.044 0-101.685-35.982-117.684-85.707h2.909c15.896 48.174 61.275 82.943 114.775 82.942 66.736 0 120.835-54.1 120.835-120.835 0-66.736-54.1-120.835-120.835-120.835-53.5 0-98.879 34.769-114.775 82.942l-2.909 0c15.999-49.726 62.639-85.707 117.684-85.707z" fill="black" stroke="transparent"></path></g></svg></g><defs><mask></mask></defs></svg><rect width="395.52" height="247.2" fill="black" stroke="none" visibility="hidden"></rect></g></mask></svg><rect width="395.52" height="247.2" fill="black" stroke="none" visibility="hidden"></rect></g></mask><linearGradient x1="0" x2="1" y1="0.548" y2="0.55" id="6c3137bc-b39f-4150-b7d1-c263b3378836"><stop stop-color="#ff6cab" offset="0"></stop><stop stop-color="#7366ff" offset="1"></stop></linearGradient></svg><rect width="395.52" height="247.2" fill="none" stroke="none" visibility="hidden"></rect></g></svg></g></svg>